<?xml version="1.0" standalone="no"?>
<!DOCTYPE svg PUBLIC "-//W3C//DTD SVG 20010904//EN"
 "http://www.w3.org/TR/2001/REC-SVG-20010904/DTD/svg10.dtd">
<svg version="1.0" xmlns="http://www.w3.org/2000/svg"
 width="117.000000pt" height="117.000000pt" viewBox="0 0 117.000000 117.000000"
 preserveAspectRatio="xMidYMid meet">
<metadata>
Created by potrace 1.14, written by Peter Selinger 2001-2017
</metadata>
<g transform="translate(0.000000,117.000000) scale(0.100000,-0.100000)"
fill="#000000" stroke="none">
<path d="M173 924 c-58 -29 -80 -123 -48 -201 8 -19 47 -66 86 -103 63 -61 72
-73 76 -113 6 -55 -9 -87 -43 -87 -27 0 -44 30 -44 82 0 23 -4 29 -16 24 -9
-3 -29 -6 -45 -6 -29 0 -29 0 -29 -62 0 -79 28 -144 67 -159 34 -13 96 -4 135
19 42 24 79 106 79 175 1 86 -14 117 -96 194 -77 73 -95 108 -76 149 21 47 81
23 81 -33 0 -19 3 -19 81 -14 13 1 15 9 9 45 -8 51 -21 71 -61 92 -37 18 -116
18 -156 -2z"/>
<path d="M440 638 l0 -298 50 0 50 0 0 43 c1 23 1 86 1 140 l0 97 65 0 64 0
-2 40 c-1 45 -8 49 -80 47 l-47 -2 2 75 2 75 78 -1 77 -1 0 38 c0 24 -5 39
-12 40 -7 1 -66 2 -130 3 l-118 1 0 -297z"/>
<path d="M739 929 c-8 -5 3 -45 36 -131 l47 -125 -45 -134 c-24 -74 -48 -148
-51 -165 -8 -36 0 -41 53 -40 l34 1 35 123 c21 74 38 118 43 111 4 -7 22 -70
39 -140 l32 -126 37 -12 c71 -21 71 -21 50 67 -10 42 -33 128 -52 191 l-35
114 49 131 c26 71 47 131 46 133 -5 4 -87 7 -90 2 -2 -2 -17 -40 -32 -84 -16
-44 -32 -84 -36 -88 -3 -5 -19 27 -33 70 -14 43 -30 84 -34 91 -9 14 -75 22
-93 11z"/>
</g>
</svg>
